<svg version="1.1" id="Layer_1" xmlns="http://www.w3.org/2000/svg" xmlns:xlink="http://www.w3.org/1999/xlink" x="0px" y="0px"
	 width="100%" viewBox="0 0 1024 1024" enable-background="new 0 0 1024 1024" xml:space="preserve">
<path fill="#03A7FF" opacity="1.000000" stroke="none" 
	d="
M580.006165,850.227905 
	C561.645935,853.975281 543.634644,856.840881 525.237854,857.509644 
	C504.554321,858.261475 483.943878,858.232849 463.445374,855.285583 
	C424.812927,849.731018 389.165314,836.615845 356.621002,814.596375 
	C313.187531,785.209106 281.606598,746.100037 259.106415,699.242920 
	C251.716888,683.854004 247.176880,667.469971 244.573456,650.591125 
	C244.018631,646.993958 242.881363,645.166931 238.610168,645.158691 
	C216.099747,645.115295 199.229065,634.049927 186.429352,616.532349 
	C175.426331,601.473633 172.014694,584.281982 174.635880,565.787476 
	C177.355392,546.598877 198.759491,526.034851 218.555511,526.713867 
	C237.529221,527.364807 256.546082,526.690063 275.542816,526.801025 
	C278.949127,526.820923 280.324829,525.768616 281.474670,522.469910 
	C287.898682,504.040985 298.481506,489.352966 318.318146,483.513824 
	C325.304565,481.457306 332.564728,480.900909 339.592377,481.984406 
	C344.445221,482.732574 345.618561,480.879761 346.744141,477.104187 
	C351.466003,461.265656 360.820038,448.605835 373.598969,438.280151 
	C390.301636,424.783997 409.295471,417.340729 430.719757,415.735321 
	C438.343353,415.164062 446.007416,415.153992 453.606567,413.978607 
	C456.785248,413.486938 457.838379,412.305115 457.791107,409.204803 
	C457.641266,399.374603 457.569092,389.539032 457.738586,379.710236 
	C457.802887,375.981567 456.132660,374.987885 452.890778,375.391632 
	C443.570099,376.552460 434.261322,375.200104 424.943207,375.238342 
	C411.608795,375.293091 400.933228,364.914581 400.790833,351.613495 
	C400.582153,332.118500 400.637970,312.618713 400.790619,293.122620 
	C400.871185,282.834900 412.291107,272.678741 422.562317,273.066406 
	C432.695312,273.448883 442.843628,273.413605 452.979065,273.748230 
	C456.684662,273.870544 457.884521,272.472260 457.847717,268.792664 
	C457.702820,254.296158 458.353455,239.772919 457.700653,225.305099 
	C456.904144,207.653549 471.146576,199.280472 483.075592,198.958313 
	C504.058136,198.391663 525.068298,198.589722 546.062866,198.827972 
	C558.184326,198.965515 569.265320,211.152725 569.336060,223.943771 
	C569.417175,238.607880 569.440613,253.275940 569.166443,267.936249 
	C569.079102,272.607391 570.462463,273.954803 575.188293,273.520020 
	C590.824890,272.081512 606.485291,273.716309 622.132141,273.928253 
	C632.654663,274.070770 643.172180,286.524170 643.139282,297.144379 
	C643.085754,314.457397 643.030396,331.770416 642.976196,349.083435 
	C642.962097,353.604645 642.564392,357.943390 640.347534,362.132294 
	C635.833130,370.662415 628.547119,374.814728 619.359985,375.089142 
	C604.707458,375.526733 590.032898,375.367340 575.369934,375.223145 
	C571.001343,375.180206 569.560730,376.067627 569.613281,381.093750 
	C569.867798,405.411011 569.761414,429.741882 569.184326,454.053741 
	C568.912964,465.489563 556.408081,476.638275 543.287170,476.962585 
	C521.970215,477.489532 500.627808,477.342834 479.302917,477.025055 
	C470.063141,476.887360 461.252167,469.337402 459.234528,460.223602 
	C458.418152,456.536194 456.506073,455.007812 453.459747,453.613068 
	C438.664398,446.838867 424.590485,450.883820 411.152924,457.145660 
	C391.140808,466.471191 381.253296,483.780579 376.407684,504.517792 
	C376.332153,504.841064 376.330872,505.181335 376.259613,505.505951 
	C373.933014,516.106812 372.732025,517.051331 361.933014,517.309326 
	C360.061554,517.354004 357.960632,516.640625 355.987152,518.552917 
	C368.225128,524.581726 380.026428,530.870544 393.754639,523.136902 
	C398.095154,520.691711 402.876984,519.033936 407.237701,516.619873 
	C416.730988,511.364563 426.074951,510.884064 435.766998,516.171814 
	C441.304626,519.192993 447.002594,521.919250 452.961212,524.156677 
	C459.201599,526.499817 464.955170,525.620789 470.942841,523.509277 
	C481.757446,519.695618 491.977417,514.346313 503.300781,511.805176 
	C521.011719,507.830566 537.587708,510.902771 553.826416,518.271301 
	C566.014587,523.801880 578.532776,528.320618 592.363281,526.762512 
	C598.558350,526.064575 604.311096,523.862793 610.155457,521.953125 
	C615.177429,520.312256 620.163635,518.561951 625.348083,516.797852 
	C622.256958,497.704956 613.961426,481.639313 600.014771,468.535767 
	C597.464783,466.139984 594.635498,463.989105 593.290161,460.610413 
	C591.257568,455.506042 593.139709,452.344696 598.561584,452.141998 
	C604.052856,451.936737 609.557617,452.055786 615.055969,452.094727 
	C617.857849,452.114563 620.329895,451.438202 622.227417,449.246735 
	C625.502625,445.464325 628.715027,446.035004 632.053406,449.243896 
	C641.044250,457.886017 648.277039,467.758575 653.321228,479.195831 
	C654.053711,480.856628 654.829407,482.498322 655.591370,484.162720 
	C681.617065,478.049591 703.164795,484.057037 719.560913,505.875458 
	C718.620300,506.884186 718.245911,507.573242 717.974548,507.534760 
	C710.814758,506.519714 704.976257,510.903351 698.411560,512.308472 
	C692.280518,513.620850 691.646912,516.996948 694.685669,522.427185 
	C696.967712,526.505127 699.926270,527.378235 703.885803,527.409424 
	C706.717224,527.431702 709.548157,527.595093 712.378967,527.587158 
	C721.053955,527.562805 724.905823,521.475525 721.425110,513.382202 
	C720.863708,512.076782 719.425476,511.044220 720.371765,508.524750 
	C725.287109,512.142822 728.152832,516.905579 728.895081,522.340454 
	C729.472351,526.567078 731.388245,527.048767 734.771484,527.023499 
	C750.268433,526.907654 765.795410,527.491089 781.256348,526.718140 
	C800.549744,525.753662 826.014343,546.717102 829.261230,570.932068 
	C831.626770,588.574036 827.415955,604.489258 816.346008,618.216614 
	C804.000061,633.526306 787.841980,642.471558 768.030090,644.071777 
	C764.817871,644.331238 763.485291,645.243896 762.875610,648.566589 
	C761.565796,655.704956 760.399353,663.027283 754.745239,669.258362 
	C754.872070,662.941223 750.843689,662.339905 746.429504,662.337646 
	C719.266296,662.323975 692.101990,662.169250 664.940247,662.365356 
	C634.469482,662.585327 604.008850,663.127197 573.528748,662.477478 
	C548.726135,661.948730 523.902405,662.409241 499.088043,662.442627 
	C491.928833,662.452271 489.461334,661.111267 487.276306,654.182617 
	C486.096497,650.441467 484.287659,649.463989 480.802826,650.109131 
	C479.508209,650.348816 478.119720,650.388733 476.815277,650.213196 
	C471.852814,649.545349 468.748657,651.020935 467.221619,656.319702 
	C465.852570,661.070190 461.738922,662.387939 456.897491,662.374756 
	C420.069214,662.274658 383.240540,662.315552 346.411987,662.301331 
	C324.747955,662.292969 303.083923,662.250854 281.419891,662.252136 
	C274.610504,662.252563 274.447205,662.753479 276.971313,668.989624 
	C286.573395,692.712646 298.383301,715.147888 313.629333,735.827637 
	C336.425964,766.749023 364.712860,790.895447 399.354095,807.576416 
	C424.571899,819.719788 451.352448,826.040955 479.037750,828.752136 
	C510.750183,831.857605 542.233459,830.013306 573.247437,822.613525 
	C617.926392,811.953247 656.904236,791.424133 687.604431,756.360901 
	C701.577087,740.402466 713.711243,723.566711 720.346252,703.160950 
	C723.579956,693.215820 732.233582,689.690430 741.225952,687.216003 
	C744.797363,686.233276 748.176697,688.234985 750.388428,691.170959 
	C752.423889,693.872986 752.728027,697.180786 750.940308,700.127319 
	C749.522095,702.464844 749.222351,704.615295 749.868591,707.222290 
	C750.877441,711.291870 749.930420,715.151489 747.879395,718.756409 
	C720.846680,766.270813 685.362427,805.255859 635.621399,829.798218 
	C617.943604,838.520447 599.489502,845.187622 580.006165,850.227905 
M459.499756,612.688843 
	C475.661194,612.690735 491.822662,612.693787 507.984100,612.694458 
	C583.296753,612.697571 658.609436,612.695496 733.922058,612.719177 
	C737.074463,612.720154 740.658386,611.813293 743.285461,613.460754 
	C750.319763,617.872009 757.791687,616.076904 765.129272,615.756714 
	C791.260559,614.616272 806.137085,593.551758 800.806763,571.712463 
	C798.738281,563.237610 793.497498,556.189331 786.749268,556.190125 
	C772.095398,556.191956 757.474609,555.248779 742.796326,555.573120 
	C717.495667,556.132141 692.170898,556.819641 666.861938,555.418823 
	C663.824829,555.250732 661.252380,554.582397 659.936646,551.531372 
	C658.913147,549.157959 656.992798,548.760071 654.997864,549.772644 
	C651.670654,551.461487 648.174805,551.276367 644.715881,551.043945 
	C636.196411,550.471497 628.185669,552.173523 620.474609,555.728760 
	C601.054810,564.682495 581.147034,568.002563 560.498840,560.270691 
	C553.029358,557.473633 545.666077,554.356628 538.396362,551.071411 
	C527.419861,546.111145 516.466919,544.926331 505.146545,549.903076 
	C496.320374,553.783325 487.485107,557.684875 478.461060,561.061646 
	C468.766663,564.689331 459.011536,565.541748 448.758362,561.981140 
	C439.266174,558.684753 430.505402,553.936951 421.374481,549.950439 
	C418.317993,548.616028 416.316376,548.637085 413.846191,550.836060 
	C405.076050,558.643188 394.296753,562.274597 383.035248,563.936218 
	C369.479797,565.936340 356.917175,562.403198 345.798981,554.336792 
	C338.811401,549.267151 331.034546,549.743225 323.981567,552.589294 
	C319.059357,554.575500 314.421173,556.124207 309.208862,556.082947 
	C280.556763,555.856079 251.904495,555.643372 223.253036,555.352478 
	C214.475800,555.263367 208.369110,559.166138 204.508942,566.976624 
	C198.546768,579.040161 203.562454,599.161255 214.859253,607.696899 
	C228.741348,618.186035 244.155426,618.870789 260.305084,614.587219 
	C263.510681,613.737000 266.634949,612.639954 270.052551,612.642395 
	C332.868256,612.687256 395.683990,612.683838 459.499756,612.688843 
M542.270386,356.038269 
	C545.890076,350.386658 551.073792,347.707794 557.765564,347.721313 
	C574.592957,347.755310 591.421326,347.639771 608.247192,347.803955 
	C612.406494,347.844543 613.767700,346.316376 613.711426,342.254913 
	C613.547424,330.428223 613.374268,318.585236 613.840759,306.773743 
	C614.051819,301.428284 612.005249,300.294464 607.290161,300.329987 
	C591.297241,300.450562 575.302185,300.280548 559.307983,300.244415 
	C556.294373,300.237610 553.308411,300.072388 550.418213,299.148926 
	C543.895020,297.064575 538.434265,290.165466 539.047546,284.909760 
	C541.077820,267.511414 539.771606,250.023148 540.399597,232.585663 
	C540.533630,228.866821 539.010681,226.943024 534.723694,227.032425 
	C520.900330,227.320648 507.067444,227.356430 493.241516,227.198364 
	C488.951630,227.149323 487.913544,228.768372 487.974548,232.808746 
	C488.213440,248.633331 488.109924,264.462799 488.179779,280.290283 
	C488.232697,292.276917 480.418304,300.220764 468.389404,300.306366 
	C457.567566,300.383392 446.750366,299.996216 435.923920,300.861298 
	C431.713013,301.197754 430.002716,302.342896 430.282532,306.774719 
	C431.037750,318.736328 431.589417,330.723267 430.374268,342.692963 
	C429.977478,346.601471 431.432037,347.796570 435.415558,347.885559 
	C446.567047,348.134674 457.665894,346.661377 468.850372,347.522705 
	C481.331299,348.483887 488.174652,355.349274 488.163727,367.901947 
	C488.142120,392.726532 488.256042,417.551758 488.096405,442.375275 
	C488.069733,446.520599 489.339142,447.894409 493.481537,447.834808 
	C507.306702,447.635773 521.136902,447.685974 534.964050,447.791840 
	C538.604736,447.819733 540.061157,446.364349 540.044861,442.767639 
	C539.931396,417.778900 539.972839,392.789185 539.762573,367.801483 
	C539.729492,363.868103 539.914978,360.173279 542.270386,356.038269 
M318.539246,513.503723 
	C317.767273,510.131500 315.351257,508.564911 312.212372,507.963043 
	C309.109802,507.368164 305.976013,506.928864 302.848358,506.473358 
	C296.616241,505.565765 291.618622,508.360901 289.116608,513.993164 
	C288.055847,516.381042 288.561584,518.487671 290.684906,519.628357 
	C298.952667,524.070007 312.239838,524.686035 318.539246,513.503723 
M442.246613,426.246490 
	C448.171478,429.543945 452.451721,434.734802 457.706940,439.706451 
	C457.706940,433.886566 457.737762,428.465118 457.672150,423.044861 
	C457.662811,422.275726 457.373108,421.359222 456.894257,420.770172 
	C452.628265,415.522064 440.429138,415.959076 435.925049,421.534698 
	C436.813660,424.274536 439.682617,424.490204 442.246613,426.246490 
M672.180420,526.606812 
	C678.330322,526.606812 684.480225,526.606812 691.389771,526.606812 
	C683.992188,519.126160 667.078491,514.734680 660.973328,518.461304 
	C664.910889,520.750061 668.305298,523.455688 672.180420,526.606812 
M320.972229,522.344055 
	C319.285980,523.461182 317.059509,523.973145 316.145599,526.305542 
	C319.457214,527.287781 322.432068,528.170105 325.610077,529.112732 
	C327.240448,525.000549 328.998383,521.295166 333.488068,518.410461 
	C328.236145,518.180969 325.142639,520.753906 320.972229,522.344055 
z"/>
<path fill="#193CA2" opacity="1.000000" stroke="none" 
	d="
M375.955994,692.756470 
	C387.648163,693.684753 394.867798,700.365479 395.305481,710.249207 
	C395.799286,721.400330 388.981628,730.037598 378.121246,732.019836 
	C368.835236,733.714783 358.142578,725.847656 356.086700,715.808044 
	C354.008453,705.659058 361.032806,695.324585 371.541321,693.142273 
	C372.836212,692.873413 374.188385,692.880493 375.955994,692.756470 
z"/>
<path fill="#03A7FF" opacity="1.000000" stroke="none" 
	d="
M454.408752,687.998901 
	C468.202881,692.997742 472.085754,704.345520 464.094971,715.225830 
	C459.857513,720.995605 453.257935,723.131531 445.322479,721.060181 
	C438.245605,719.212830 434.293976,714.355957 433.377319,707.249390 
	C432.478973,700.284912 435.642273,694.914673 441.211578,691.074219 
	C444.978485,688.476685 449.296265,687.166809 454.408752,687.998901 
z"/>
<path fill="#03A7FF" opacity="1.000000" stroke="none" 
	d="
M688.885010,707.893799 
	C687.993591,712.395508 687.001587,716.430420 683.954102,719.553101 
	C681.072449,722.505737 678.295288,722.356384 677.051819,718.609375 
	C674.973877,712.347900 673.422607,705.890320 672.019043,699.434998 
	C671.291443,696.088379 673.026489,693.676086 676.425781,692.677734 
	C677.221313,692.444092 678.000854,692.139343 678.809265,691.969971 
	C682.344543,691.229492 686.139282,689.634155 689.118652,692.886536 
	C692.214294,696.265808 691.254822,700.269348 689.938965,704.153442 
	C689.567322,705.250549 689.285583,706.378052 688.885010,707.893799 
z"/>
</svg>